<?xml version="1.0" standalone="no"?>
<!DOCTYPE svg PUBLIC "-//W3C//DTD SVG 20010904//EN"
 "http://www.w3.org/TR/2001/REC-SVG-20010904/DTD/svg10.dtd">
<svg version="1.0" xmlns="http://www.w3.org/2000/svg"
 width="512.000000pt" height="512.000000pt" viewBox="0 0 512.000000 512.000000"
 preserveAspectRatio="xMidYMid meet">
<metadata>
Created by potrace 1.14, written by Peter Selinger 2001-2017
</metadata>
<g transform="translate(0.000000,512.000000) scale(0.100000,-0.100000)"
fill="#000000" stroke="none">
<path d="M576 5104 c-33 -8 -66 -20 -74 -27 -8 -6 -18 -11 -21 -11 -37 8 -229
-153 -246 -207 -4 -10 -11 -19 -16 -19 -6 0 -8 -4 -4 -9 3 -6 -3 -14 -12 -20
-10 -6 -15 -11 -11 -11 4 0 0 -17 -8 -37 -16 -38 -20 -51 -33 -115 -5 -20 -8
-962 -8 -2095 0 -2003 0 -2060 19 -2128 19 -67 65 -166 81 -173 4 -2 7 -8 7
-14 0 -11 99 -110 146 -145 16 -13 37 -23 47 -23 9 0 17 -4 17 -9 0 -4 30 -19
68 -32 l67 -24 1660 -2 c1594 -2 1663 -1 1729 17 77 21 101 31 166 74 95 62
202 194 217 267 3 16 9 29 13 29 3 0 7 6 8 13 0 6 4 28 9 47 4 19 8 521 8
1115 0 708 3 1083 10 1087 6 5 5 8 -3 8 -7 0 -10 4 -7 10 3 5 6 195 6 422 0
392 1 412 20 436 10 14 19 21 19 16 0 -5 4 -3 9 4 17 28 484 492 494 492 6 0
8 3 4 6 -3 4 -1 12 6 20 31 35 38 46 57 93 19 50 31 116 23 125 -3 3 -6 24 -8
48 -6 80 -37 122 -276 361 -126 126 -229 233 -229 238 0 5 -6 9 -13 9 -7 0
-20 8 -28 18 -31 33 -58 51 -106 67 -59 20 -124 26 -140 13 -9 -7 -13 -7 -13
1 0 8 -10 7 -32 -2 -31 -13 -57 -12 -68 3 -10 12 -86 44 -150 61 -61 17 -170
18 -1705 18 -1386 -1 -1649 -3 -1699 -15z"/>
</g>
</svg>
